#!OML:ASF F:\VICON\USERDATA\INSTALL\rory3\rory3.ASF
:FULLY-SPECIFIED
:DEGREES
63
root 0.7974889951975728 17.881658965519918 30.581630323286973 -3.188475612262918 -1.0881147037753498 2.5741103576165068
lfemur 0.9297283068032627 -3.6058926265959723 -28.50179313006774
ltibia 21.712973656604447
lfoot -15.966687345083031 4.016004919837632
ltoes 1.9338826740848645
rfemur -30.366612741248307 -0.752135481074431 19.31350569278677
rtibia 53.969538917839955
rfoot -9.651025419635396 -10.301121012481168
rtoes 0.9003211707727212
lowerback 10.21860380813116 -0.08373825303629767 -2.9861110694886905
upperback 0.7980553670531998 -0.4368787865621466 0.703655453101755
thorax -4.899170779597049 -0.143315815005032 2.4123649702448877
lowerneck -16.462897120196434 -2.6644941898422405 -2.7165002962109117
upperneck 20.342101423171805 -3.3773120414194913 1.434313691573473
head 9.170983755483961 -1.6263123065224991 0.5085277839157455
lclavicle -2.06579417832642e-15 8.043535953487269e-16
lhumerus -25.34739061218502 -3.3892481973177686 83.25980102187312
lradius 25.30405405185519
lwrist 5.1293313824037785
lhand -27.18000450170944 23.072931364178377
lfingers 7.12502
lthumb -0.5938883071166227 53.05260349774977
rclavicle -2.06579417832642e-15 8.04353595348727e-16
rhumerus -29.312856709028676 -18.161141569324204 -80.05916743916376
rradius 26.160938181723807
rwrist 4.388603609247855
rhand -17.294145188530155 22.220074323184917
rfingers 7.12502
rthumb 8.951384517596967 -7.56491542030981
64
root 0.758914714645007 17.855199226466112 31.09783821742971 -2.497781101721709 -0.4560143607484659 3.0766258978114975
lfemur 4.189126828027064 -3.179673865868288 -29.225931923109197
ltibia 17.024345712058853
lfoot -16.669542199247626 3.4051236141310373
ltoes 1.0070421069328135
rfemur -31.4748395336677 0.8449728600766848 17.69449746235103
rtibia 40.76060725621059
rfoot -9.399655615310767 -14.239400892936338
rtoes -0.04633205706325416
lowerback 9.861166773782694 -0.4748406897440064 -3.9861625598640487
upperback 0.7299792797041199 -1.0541415010438682 0.6936335638061081
thorax -4.76817726559599 -0.4315287590791098 2.894536302367851
lowerneck -16.556872228657973 -2.6871216349049623 -2.8275583152399975
upperneck 20.17222747804839 -3.416660899743894 1.568022018724712
head 9.122082359282626 -1.6353932229032528 0.5600845514627968
lclavicle -2.5303407338355236e-15 3.768622834173802e-16
lhumerus -23.106391295808287 -4.9292507280037015 82.8945642258375
lradius 26.475270698947917
lwrist 6.028280367143746
lhand -27.112667310022502 23.51979158450924
lfingers 7.12502
lthumb -0.5289042999385873 53.49826583588788
rclavicle -2.5303407338355236e-15 3.768622834173802e-16
rhumerus -29.94337953220062 -18.365898909733833 -79.94531115278572
rradius 25.942933867841255
rwrist 4.3254192665359
rhand -17.14745822790993 22.49744182960881
rfingers 7.12502
rthumb 9.092915120443628 -7.278317752795503
65
root 0.7100930919815653 17.81827962009048 32.00506734509773 -1.7499786637057118 0.34591664783008724 3.6174388588915947
lfemur 8.117936087737608 -2.7508301129659753 -29.444208379112332
ltibia 12.72359519173429
lfoot -16.790135827472707 2.5460898604078785
ltoes -0.471784014193136
rfemur -31.051194583620692 3.223480972447026 15.95919646308941
rtibia 27.87248332874198
rfoot -9.321307799880554 -17.714254563418102
rtoes -1.0016759502035373
lowerback 9.463512761739285 -0.8083489134030922 -4.790492575055585
upperback 0.6158219983384443 -1.5702021712599756 0.7168518858471805
thorax -4.628766202738386 -0.6736421270779367 3.4099272215191387
lowerneck -16.592615458826813 -2.6992813279249055 -2.8648945668085255
upperneck 20.092371517412733 -3.4460537573988406 1.7150250759806318
head 9.102241164345829 -1.640359019817813 0.6076742131070771
lclavicle -2.4747479960973866e-15 4.2737140701044113e-16
lhumerus -20.919300356767412 -5.859792398915949 82.47957117487682
lradius 27.663130772012018
lwrist 6.822956106750972
lhand -27.088702245117556 23.855215307532063
lfingers 7.12502
lthumb -0.505814993931973 53.83098170320758
rclavicle -2.4747479960973866e-15 4.2737140701044143e-16
rhumerus -30.494417078140057 -18.940657049460437 -79.53655643104389
rradius 25.45809459348356
rwrist 4.880272146067548
rhand -17.004505656962895 23.033475707834633
rfingers 7.12502
rthumb 9.230851917730067 -6.735897476096218
66
root 0.6455313282468355 17.75573919718801 33.06518446886626 -1.1639483575963623 1.173112484024839 3.9940511445504847
lfemur 11.884877190377864 -2.702101454609536 -29.363800448427973
ltibia 9.740348716017305
lfoot -16.70069635571295 1.501360613603391
ltoes -2.697091236277439
rfemur -30.17702771120145 5.298582211731918 14.647903647196877
rtibia 18.339639694989987
rfoot -9.821774406871842 -19.23132794460645
rtoes -2.552474643387447
lowerback 9.184192955174908 -1.099210523230889 -5.376462740877321
upperback 0.5088434885665547 -2.0064793407451 0.7900169416924661
thorax -4.5342086650992925 -0.8791365760091201 3.869347584887667
lowerneck -16.643302198666277 -2.715683047873576 -2.9041054964709136
upperneck 20.072644366776498 -3.4752533990953296 1.8339725474580701
head 9.10700248707931 -1.6480677577525058 0.6450879064856556
lclavicle -2.3241745741861796e-15 5.635975406185995e-16
lhumerus -19.104536416528447 -6.410526569646906 82.18414530758551
lradius 28.79888511596069
lwrist 7.420002951014486
lhand -27.295097452757748 23.648871661863282
lfingers 7.12502
lthumb -0.7051705137398577 53.62165607134948
rclavicle -2.32417457418618e-15 5.635975406185995e-16
rhumerus -31.055889830258458 -19.891445607166116 -78.93008594377498
rradius 24.7540820837087
rwrist 5.726508586229165
rhand -17.025737481387097 23.47402249052786
rfingers 7.12502
rthumb 9.21037458690167 -6.297954772498375
67
root 0.5703029234072949 17.678718060335758 34.317059515320445 -0.8869516867056979 1.7958131898933472 4.061618597578468
lfemur 15.045700057034747 -3.1974678828716567 -28.977260404358717
ltibia 9.27478550831161
lfoot -16.326129903299833 0.5129680232701384
ltoes -5.9431963152747365
rfemur -29.41942384531843 6.164519388290393 14.607697035893455
rtibia 14.631504949655898
rfoot -9.886823056427584 -17.890509678255583
rtoes -4.036209753738886
lowerback 9.11104521002617 -1.2840616296709242 -5.572403922451502
upperback 0.4696182345053193 -2.2649226294954667 0.9596258480289693
thorax -4.490732852380103 -1.0020655397535303 4.230079468231762
lowerneck -16.74861033772342 -2.723512716451804 -2.930616594670905
upperneck 20.098365138039796 -3.480584534796844 1.8568599804138204
head 9.134132068306629 -1.650236579812315 0.6539833868771675
lclavicle -2.0288423631123856e-15 8.324440228972014e-16
lhumerus -17.831867054182773 -6.567198265939052 82.10960222007108
lradius 29.805235652650815
lwrist 7.818798557731219
lhand -27.792738731045635 22.912944156617982
lfingers 7.12502
lthumb -1.185752090342509 52.882353902505926
rclavicle -2.028842363112386e-15 8.324440228972014e-16
rhumerus -31.607450872141563 -21.129567540414982 -78.09466027116413
rradius 23.91004978678956
rwrist 6.883596905138273
rhand -17.185978340964905 23.630570744289912
rfingers 7.12502
rthumb 9.055771104739607 -6.151280149196095
